<svg width="26" height="21" viewBox="0 0 26 21" fill="none" xmlns="http://www.w3.org/2000/svg">
<rect width="26" height="20.5581" rx="3.5" fill="#979797"/>
<path fill-rule="evenodd" clip-rule="evenodd" d="M16.4445 12.5844L19.7734 15.8612C19.8947 15.9806 19.8947 16.1737 19.7734 16.2931L19.5179 16.5445C19.3966 16.6639 19.2005 16.6639 19.0792 16.5445L15.7503 13.2677C15.6935 13.2093 15.66 13.1331 15.66 13.0518V12.7927C14.7026 13.6615 13.4252 14.1949 12.0188 14.1949C9.05375 14.1949 6.65125 11.83 6.65125 8.9114C6.65125 5.99277 9.05375 3.6279 12.0188 3.6279C14.9839 3.6279 17.3864 5.99277 17.3864 8.9114C17.3864 10.2958 16.8445 11.5531 15.9593 12.4955H16.2251C16.3077 12.4955 16.3851 12.526 16.4445 12.5844ZM7.47689 8.91136C7.47689 11.3829 9.50779 13.382 12.0187 13.382C14.5296 13.382 16.5605 11.3829 16.5605 8.91136C16.5605 6.4398 14.5296 4.44071 12.0187 4.44071C9.50779 4.44071 7.47689 6.4398 7.47689 8.91136Z" fill="#2A3036"/>
</svg>
